<svg id="Layer_1" data-name="Layer 1" xmlns="http://www.w3.org/2000/svg" viewBox="0 0 75 75"><defs><style>.cls-1{fill:#fff;}.cls-2{fill:#231f20;}</style></defs><title>icons</title><polygon class="cls-1" points="37.5 61.66 14.94 74.13 19.25 47.71 0.96 28.97 26.23 25.11 37.5 1.09 48.77 25.11 74.04 28.97 55.76 47.71 60.06 74.13 37.5 61.66"/><path class="cls-2" d="M37.5,2.18l10.75,22.9.21.45.49.07,24.13,3.69L55.59,47.22l-.33.34.08.46,4.12,25.25L37.95,61.38l-.45-.25-.45.25L15.55,73.26,19.67,48l.08-.46-.33-.34L1.93,29.29l24.13-3.69.49-.07.21-.45L37.5,2.18M37.5,0,25.91,24.69,0,28.65,18.75,47.86,14.32,75,37.5,62.19,60.68,75,56.25,47.86,75,28.65l-25.91-4L37.5,0Z"/></svg>