<svg id="Layer_1" data-name="Layer 1" xmlns="http://www.w3.org/2000/svg" viewBox="0 0 85 85"><defs><style>.cls-1{fill:#2470ad;}.cls-1,.cls-2{fill-rule:evenodd;}.cls-2{fill:#f27121;}</style></defs><title>icons</title><path class="cls-1" d="M80.07,29.92a4.62,4.62,0,0,0-3.15,1.24L46.58,9.24a4.65,4.65,0,1,0-8.67,0L7.84,31a4.65,4.65,0,1,0-2.91,8.26,4.58,4.58,0,0,0,.51-.05l13,39.88h.81l.09.07,0-.07H61.28a4.64,4.64,0,1,0,6.62-5.67L79.07,39.12a4.65,4.65,0,1,0,1-9.2Zm-3.91,2.14a4.33,4.33,0,0,0-.68,3.22L46.6,45.21a4.64,4.64,0,0,0-4.36-3.06h0V12.23h0A4.64,4.64,0,0,0,46,10.28Zm-35.11-20V42.33a4.64,4.64,0,0,0-3.17,2.89L9.5,35.45a4.66,4.66,0,0,0,.09-.87,4.61,4.61,0,0,0-.92-2.76L38.47,10.28A4.64,4.64,0,0,0,41.06,12.06ZM9.13,36.56l28.51,9.81c0,.15,0,.29,0,.44a4.62,4.62,0,0,0,1.68,3.55L19.14,77.43,6.59,38.91A4.65,4.65,0,0,0,9.13,36.56ZM20.26,77.89,40.25,51a4.51,4.51,0,0,0,4,0L61.86,74.7a4.62,4.62,0,0,0-.9,2.72,4.57,4.57,0,0,0,0,.46Zm46.55-4.95a4.46,4.46,0,0,0-4.13.9L45.22,50.36a4.62,4.62,0,0,0,1.68-3.55c0-.15,0-.29,0-.44l28.94-10A4.66,4.66,0,0,0,78,38.71Z"/><path class="cls-2" d="M57.3,37.5a4.62,4.62,0,0,0-1.93.43L45.16,21.41A4.64,4.64,0,1,0,39,21.13l-12.12,16a4.64,4.64,0,1,0-3.14,8.73l-.82,22.32a4.7,4.7,0,1,0,4.91,3.46l24.95-9.87.28-.11,3.7-14.89a4.59,4.59,0,0,0,.54.05,4.65,4.65,0,0,0,0-9.31ZM52.07,60.77,27.39,70.54a4.63,4.63,0,0,0-3.31-2.34L24.9,46l.19,0a4.64,4.64,0,0,0,2.8-8.35l12-15.89a4.53,4.53,0,0,0,4.24.21L54.38,38.55a4.62,4.62,0,0,0,1.24,7.93Z"/></svg>