<svg id="Layer_1" data-name="Layer 1" xmlns="http://www.w3.org/2000/svg" viewBox="0 0 85 85"><defs><style>.cls-1{fill:#f27121;}.cls-1,.cls-2{fill-rule:evenodd;}.cls-2{fill:#2470ad;}</style></defs><title>icons</title><path class="cls-1" d="M39.56,48.39A11.58,11.58,0,0,1,37.4,46l-3.6,2.3a2.48,2.48,0,1,1-.34-.49l3.62-2.31a11.43,11.43,0,0,1-1.43-4L23,42.36A6.61,6.61,0,1,1,23,40.78l12.56-.91a11.44,11.44,0,0,1,.6-3.93L32.5,34.31a2.48,2.48,0,1,1,.26-.53l3.55,1.61a11.55,11.55,0,0,1,1.37-2.49l9.46,7.31Z"/><path class="cls-2" d="M46.21,28.15a11.55,11.55,0,0,1,2.49.09L52.29,16.4a4.69,4.69,0,1,1,1,.31L49.76,28.44A11.52,11.52,0,0,1,54.63,31l3-3.58a2.48,2.48,0,1,1,.47.37l-3,3.61a11.48,11.48,0,0,1,3,4.91l6.56-4.89a6.6,6.6,0,1,1,1,1.24L58.43,38c0,.27.07.55.09.83a11.53,11.53,0,0,1-.05,2.2l3-1.06a2.48,2.48,0,1,1,.22.55l-3.35,1.17A11.39,11.39,0,0,1,57.7,44l11.06,1.19a2.29,2.29,0,1,1-.06.52L57.48,44.47a11.55,11.55,0,0,1-1.16,2l3.4,2.24a2.48,2.48,0,1,1-.34.49L56,46.9a11.59,11.59,0,0,1-2.38,2.21l5.33,8a6.61,6.61,0,1,1-1.35.83l-5.34-8a11.48,11.48,0,0,1-4.37,1.2,11.65,11.65,0,0,1-1.53,0l-.78,5.29a4,4,0,1,1-1-.11L45.36,51a11.47,11.47,0,0,1-4.19-1.48L21.28,70.29a4.91,4.91,0,1,1-.81-.78L40,49.18h0c3.31-3.38,6.79-7,8.77-9.14l-.84-.64-10.31-8h0L16.57,15a4.91,4.91,0,1,1,.7-.89l21.88,17.1A11.5,11.5,0,0,1,43,28.86l-2.07-7a4,4,0,1,1,.93-.24l2,6.91A11.51,11.51,0,0,1,46.21,28.15Z"/></svg>