<svg id="Layer_1" data-name="Layer 1" xmlns="http://www.w3.org/2000/svg" viewBox="0 0 85 85"><defs><style>.cls-1{fill:#2470ad;}.cls-2{fill:none;stroke:#2470ad;stroke-miterlimit:10;stroke-width:1.69px;}.cls-3{fill:#f27121;}.cls-4{fill:#f27123;}</style></defs><title>icons</title><path class="cls-1" d="M74.61,20.28A6.44,6.44,0,1,1,81,13.84,6.44,6.44,0,0,1,74.61,20.28Zm0-11.18a4.75,4.75,0,1,0,4.75,4.75A4.75,4.75,0,0,0,74.61,9.09Z"/><path class="cls-1" d="M56.4,84.65a6.44,6.44,0,1,1,6.44-6.44A6.44,6.44,0,0,1,56.4,84.65Zm0-11.18a4.75,4.75,0,1,0,4.75,4.75A4.75,4.75,0,0,0,56.4,73.46Z"/><path class="cls-1" d="M15.34,49A3.61,3.61,0,1,1,19,45.39,3.62,3.62,0,0,1,15.34,49Zm0-5.54a1.92,1.92,0,1,0,1.92,1.92A1.93,1.93,0,0,0,15.34,43.46Z"/><path class="cls-1" d="M49.94,13.23a6.44,6.44,0,1,1,6.44-6.44A6.44,6.44,0,0,1,49.94,13.23ZM49.94,2a4.75,4.75,0,1,0,4.75,4.75A4.75,4.75,0,0,0,49.94,2Z"/><circle class="cls-2" cx="74.38" cy="32.17" r="2.77"/><path class="cls-1" d="M7.84,65.52a6.44,6.44,0,1,1,6.44-6.44A6.44,6.44,0,0,1,7.84,65.52Zm0-11.18a4.75,4.75,0,1,0,4.75,4.75A4.75,4.75,0,0,0,7.84,54.34Z"/><path class="cls-1" d="M8,36a3.82,3.82,0,1,1,3.82-3.82A3.83,3.83,0,0,1,8,36Zm0-6a2.14,2.14,0,1,0,2.14,2.14A2.14,2.14,0,0,0,8,30Z"/><polygon class="cls-1" points="13.16 57.18 12.36 55.7 18.04 52.65 25.42 52.65 25.42 54.34 18.46 54.34 13.16 57.18"/><rect class="cls-1" x="61.99" y="31.32" width="9.62" height="1.69"/><path class="cls-3" d="M78,62.5a5.57,5.57,0,0,0-2,.39l.69-.31-3.28-7.25H62V57h10.3l2.83,6.26.25-.11A5.59,5.59,0,1,0,78,62.5Z"/><polygon class="cls-1" points="57.24 23.27 55.56 23.27 55.56 17.39 61.72 12.99 69.02 12.99 69.02 14.68 62.26 14.68 57.24 18.26 57.24 23.27"/><polygon class="cls-1" points="25.42 38.22 14.86 38.22 9.89 34.67 10.87 33.29 15.4 36.53 25.42 36.53 25.42 38.22"/><rect class="cls-1" x="18.11" y="44.54" width="7.32" height="1.69"/><rect class="cls-1" x="49.09" y="12.38" width="1.69" height="10.89"/><circle class="cls-3" cx="38.25" cy="73.58" r="2.77"/><rect class="cls-3" x="37.19" y="59.84" width="1.69" height="10.97"/><polygon class="cls-1" points="52.08 74.57 47.05 68.83 47.05 59.84 48.74 59.84 48.74 68.2 53.35 73.45 52.08 74.57"/><path class="cls-3" d="M30.47,59.84H28.78v6.37L19.35,71.3a3.07,3.07,0,1,0,.94,1.41l10.18-5.49Z"/><path class="cls-3" d="M78.29,44.17a3,3,0,0,0-2.84,2.14H62v.84l-.28-.8-9.12,3.18V59.84h1.69V50.73L62.14,48H75.45a3,3,0,1,0,2.84-3.82Z"/><polygon class="cls-1" points="25.69 54.3 25.16 52.69 53.09 43.56 53.09 31.32 61.99 31.32 61.99 33.01 54.78 33.01 54.78 44.78 25.69 54.3"/><polygon class="cls-1" points="25.86 46.1 24.98 44.67 49.09 29.83 49.09 23.27 50.78 23.27 50.78 30.78 25.86 46.1"/><rect class="cls-4" x="44.14" y="32.71" width="1.69" height="1.69" transform="translate(-8.88 17.8) rotate(-20.42)"/><path class="cls-4" d="M42,23.12V15.78l-6.38-4.61-.35.49a2.92,2.92,0,1,0,0,.06l-.59.82,5.68,4.1v6.63h.84l-.79.29L41,25.15l1.58-.59Z"/><rect class="cls-4" x="45.32" y="35.88" width="1.69" height="1.69" transform="translate(-9.91 18.41) rotate(-20.42)"/><rect class="cls-4" x="41.79" y="26.38" width="1.69" height="1.69" transform="translate(-6.81 16.56) rotate(-20.39)"/><rect class="cls-4" x="42.97" y="29.55" width="1.69" height="1.69" transform="translate(-7.85 17.19) rotate(-20.42)"/><rect class="cls-4" x="56.78" y="38.83" width="1.69" height="1.69"/><rect class="cls-4" x="60.15" y="38.83" width="1.69" height="1.69"/><polygon class="cls-4" points="47.26 39.02 46.26 39.39 46.67 40.52 48.33 40.52 48.33 38.83 47.26 38.83 47.26 39.02"/><rect class="cls-4" x="53.4" y="38.83" width="1.69" height="1.69"/><rect class="cls-4" x="50.02" y="38.83" width="1.69" height="1.69"/><path class="cls-4" d="M18.7,28.2l-5.32-7.84-.7.48a5.59,5.59,0,1,0-3.14,1,5.59,5.59,0,0,0,3.14-1l-.67.46,5.82,8.58h9.31V28.2H18.7Z"/><rect class="cls-4" x="35.55" y="28.2" width="1.69" height="1.69"/><rect class="cls-4" x="37.19" y="53.57" width="1.69" height="1.69"/><rect class="cls-4" x="37.19" y="56.95" width="1.69" height="1.69"/><rect class="cls-4" x="32.18" y="28.2" width="1.69" height="1.69"/><rect class="cls-4" x="28.8" y="28.2" width="1.69" height="1.69"/><rect class="cls-4" x="37.19" y="43.44" width="1.69" height="1.69"/><rect class="cls-4" x="37.19" y="36.69" width="1.69" height="1.69"/><rect class="cls-4" x="37.19" y="33.31" width="1.69" height="1.69"/><rect class="cls-4" x="37.19" y="29.94" width="1.69" height="1.69"/><rect class="cls-4" x="37.19" y="40.07" width="1.69" height="1.69"/><rect class="cls-4" x="37.19" y="46.82" width="1.69" height="1.69"/><rect class="cls-4" x="37.19" y="50.2" width="1.69" height="1.69"/><polygon class="cls-1" points="48.74 59.84 47.05 59.84 47.05 53.93 24.93 38.06 25.91 36.69 48.74 53.06 48.74 59.84"/><path class="cls-1" d="M62.84,60.69H24.58V22.43H62.84ZM26.27,59H61.15V24.12H26.27Z"/></svg>